<svg width="122" height="121" viewBox="0 0 122 121" fill="none" xmlns="http://www.w3.org/2000/svg">
<path d="M74.8184 68.2255C76.401 68.2255 77.6885 69.3738 77.6885 70.7853C77.6885 71.5276 78.2727 72.1295 78.9931 72.1295C79.7135 72.1295 80.2977 71.5276 80.2977 70.7853C80.2977 68.3219 78.5164 66.2506 76.123 65.6884V64.9893C76.123 64.247 75.5388 63.645 74.8184 63.645C74.098 63.645 73.5138 64.247 73.5138 64.9893V65.6884C71.1204 66.2506 69.3391 68.3219 69.3391 70.7853C69.3391 73.6791 71.7971 76.0334 74.8184 76.0334C76.401 76.0334 77.6885 77.1817 77.6885 78.5932C77.6885 80.0047 76.401 81.153 74.8184 81.153C73.2358 81.153 71.9483 80.0047 71.9483 78.5932C71.9483 77.8509 71.3641 77.2489 70.6437 77.2489C69.9233 77.2489 69.3391 77.8509 69.3391 78.5932C69.3391 81.0566 71.1204 83.1278 73.5138 83.69V84.2707C73.5138 85.0131 74.098 85.615 74.8184 85.615C75.5388 85.615 76.123 85.0131 76.123 84.2707V83.69C78.5164 83.1278 80.2977 81.0566 80.2977 78.5932C80.2977 75.6993 77.8397 73.3449 74.8184 73.3449C73.2358 73.3449 71.9483 72.1966 71.9483 70.7853C71.9483 69.3738 73.2358 68.2255 74.8184 68.2255Z" fill="#3550AB"/>
<path d="M89.3501 65.1824C87.5998 62.3857 85.1338 60.1479 82.2187 58.711C81.5516 58.3821 80.751 58.6701 80.4305 59.354C80.1098 60.038 80.3905 60.8587 81.0576 61.1875C86.1374 63.6914 89.4195 69.0414 89.4195 74.8171C89.4195 77.2886 88.8254 79.7395 87.7016 81.9054C87.354 82.5752 87.6018 83.4073 88.2551 83.7637C88.4556 83.873 88.671 83.925 88.8833 83.925C89.3627 83.925 89.8265 83.6603 90.0674 83.1961C91.3967 80.6345 92.0994 77.737 92.0994 74.8171C92.0994 71.3878 91.1487 68.0561 89.3501 65.1824" fill="#3550AB"/>
<path d="M68.5794 88.0724C63.4997 85.5684 60.2175 80.2184 60.2175 74.4428C60.2175 71.9713 60.8116 69.5204 61.9354 67.3545C62.283 66.6847 62.0353 65.8526 61.3819 65.4962C60.7288 65.1398 59.9171 65.3939 59.5696 66.0638C58.2403 68.6255 57.5376 71.5229 57.5376 74.4428C57.5376 77.8721 58.4883 81.2037 60.2869 84.0775C62.0373 86.8742 64.5033 89.1121 67.4184 90.5491C67.6056 90.6414 67.8033 90.685 67.998 90.685C68.497 90.685 68.9759 90.398 69.2067 89.9061C69.527 89.2221 69.2465 88.4012 68.5794 88.0724" fill="#3550AB"/>
<path d="M75.049 94.5897C63.9657 94.5897 54.948 85.555 54.948 74.4497C54.948 63.3444 63.9657 54.3097 75.049 54.3097C86.1322 54.3097 95.1499 63.3444 95.1499 74.4497C95.1499 85.555 86.1322 94.5897 75.049 94.5897ZM42.3773 87.2851C40.5249 87.2851 39.0172 85.775 39.0172 83.9182C39.0172 82.0615 40.5249 80.5513 42.3773 80.5513H52.7641C53.4266 82.9772 54.4736 85.2451 55.8356 87.2851H42.3773ZM39.0172 74.179C39.0172 72.3223 40.5249 70.8121 42.3773 70.8121H52.2347C52.0469 71.9975 51.9479 73.2121 51.9479 74.4497C51.9479 75.4996 52.0196 76.5329 52.1556 77.546H42.3773C40.5249 77.546 39.0172 76.0358 39.0172 74.179ZM39.0172 64.4398C39.0172 62.5832 40.5249 61.0729 42.3773 61.0729H56.2084C54.7699 63.1008 53.6491 65.3697 52.919 67.8068H42.3773C40.5249 67.8068 39.0172 66.2966 39.0172 64.4398ZM39.0172 54.7006C39.0172 52.844 40.525 51.3337 42.3773 51.3337H73.8787C67.9861 51.6298 62.6683 54.1487 58.7456 58.0676H42.3773C40.525 58.0676 39.0172 56.5573 39.0172 54.7006ZM47.6576 44.9615C47.6576 43.1048 49.1653 41.5945 51.0177 41.5945H84.0942C85.9467 41.5945 87.4544 43.1048 87.4544 44.9615C87.4544 46.8181 85.9467 48.3284 84.0942 48.3284H75.4538H51.0177C49.1653 48.3284 47.6576 46.8181 47.6576 44.9615ZM31.7268 35.2223C31.7268 33.3656 33.2345 31.8553 35.087 31.8553H68.1635C70.016 31.8553 71.5237 33.3656 71.5237 35.2223C71.5237 37.0789 70.016 38.5892 68.1635 38.5892H35.087C33.2345 38.5892 31.7268 37.0789 31.7268 35.2223ZM84.0942 38.5892H73.5604C74.1703 37.6117 74.5238 36.4576 74.5238 35.2223C74.5238 31.7088 71.6709 28.85 68.1635 28.85H35.087C31.5796 28.85 28.7267 31.7088 28.7267 35.2223C28.7267 38.7357 31.5796 41.5945 35.087 41.5945H45.6208C45.011 42.5721 44.6574 43.7261 44.6574 44.9615C44.6574 46.1968 45.0108 47.3508 45.6208 48.3284H42.3773C38.8699 48.3284 36.017 51.1872 36.017 54.7006C36.017 56.6524 36.8985 58.4009 38.2818 59.5702C36.8985 60.7396 36.017 62.488 36.017 64.4398C36.017 66.3916 36.8985 68.1401 38.2818 69.3094C36.8985 70.4788 36.017 72.2272 36.017 74.179C36.017 76.1308 36.8985 77.8792 38.2818 79.0486C36.8985 80.218 36.017 81.9664 36.017 83.9182C36.017 87.4317 38.8699 90.2905 42.3773 90.2905H58.2227C62.4388 94.7835 68.4218 97.595 75.049 97.595C87.7873 97.595 98.15 87.2119 98.15 74.4497C98.15 63.8528 91.0052 54.8982 81.2891 52.1635C81.1641 51.8742 81.0192 51.597 80.856 51.3337H84.0942C87.6016 51.3337 90.4545 48.4749 90.4545 44.9615C90.4545 41.448 87.6016 38.5892 84.0942 38.5892Z" fill="#3550AB" stroke="#3550AB" stroke-width="0.3"/>
<circle cx="61.3767" cy="60.5" r="58.5" stroke="#B4FEFA" stroke-width="4"/>
</svg>
