<svg width="122" height="121" viewBox="0 0 122 121" fill="none" xmlns="http://www.w3.org/2000/svg">
<path d="M63.5937 115.155C63.3032 115.155 63.0814 114.933 63.0814 114.642V107.211C63.0814 104.127 65.5974 101.612 68.6809 101.612H99.2378C99.5283 101.612 99.7501 101.833 99.7501 102.124C99.7501 102.414 99.5283 102.636 99.2378 102.636H68.6809C66.1618 102.636 64.1059 104.692 64.1059 107.211V114.642C64.1059 114.916 63.8676 115.155 63.5937 115.155Z" fill="#3550AB" stroke="#3550AB" stroke-width="2.5"/>
<path d="M71.2232 101.142L71.2186 101.131L71.2137 101.121C70.1941 98.8963 69.0568 95.1387 69.6724 90.0717L69.6726 90.0695C70.3428 84.4691 72.2975 80.9883 73.4757 79.3205L74.058 78.4962L73.375 77.7533L56.5364 59.4368C56.5209 59.4166 56.4969 59.3863 56.4665 59.3517C55.7926 58.4979 55.0205 57.0266 54.8244 55.3819C54.6324 53.771 54.9858 51.9928 56.5751 50.3613C57.9774 48.9248 59.4915 48.569 60.8673 48.7254C62.2911 48.8872 63.6136 49.6091 64.4709 50.4049L64.4719 50.4058L64.472 50.4059C64.499 50.4329 64.901 50.8218 65.5764 51.4753C66.992 52.8449 69.6088 55.3767 72.4904 58.1726C76.7598 62.3152 81.6278 67.0547 84.1231 69.5417C85.2581 70.6768 85.9843 71.8479 86.3701 73.1023C86.7566 74.3587 86.8238 75.7712 86.5352 77.4194L86.5346 77.4226C86.4881 77.6922 86.2323 77.8844 85.9339 77.8329C85.6646 77.7865 85.4724 77.531 85.5235 77.2329C85.7621 75.8645 85.7557 74.6106 85.397 73.4229C85.0367 72.2298 84.352 71.206 83.3968 70.2507C78.8417 65.6956 66.3408 53.6094 64.1222 51.4644C63.9476 51.2956 63.8367 51.1884 63.7983 51.1512L63.7875 51.1408L63.7765 51.1305C63.5015 50.8767 62.6618 50.17 61.5131 49.8512C60.2664 49.5053 58.7066 49.643 57.3162 51.0559L57.3161 51.0559L57.3114 51.0607C55.7138 52.7018 55.6299 54.5718 55.9836 56.0024C56.3229 57.3745 57.0666 58.4007 57.2618 58.6574L57.297 58.7038L57.3364 58.7467L75.1751 78.1648L75.1751 78.1648L75.1797 78.1697C75.3612 78.3652 75.3579 78.6882 75.1562 78.8849L75.1507 78.8903L75.1453 78.8958C74.9748 79.0662 71.6026 82.5884 70.6982 90.1719L70.6979 90.1739C70.1369 94.9431 71.1482 98.4981 72.1665 100.667C72.2797 100.925 72.1663 101.236 71.9049 101.359L71.8919 101.365L71.8791 101.371C71.8316 101.395 71.7963 101.406 71.7699 101.412C71.7434 101.419 71.7131 101.422 71.6734 101.422C71.4694 101.422 71.2931 101.302 71.2232 101.142Z" fill="#3550AB" stroke="#3550AB" stroke-width="2.5"/>
<path d="M84.0293 51.5345L84.0293 51.5345L84.0235 51.5293C83.8254 51.3537 83.7914 51.0319 83.9968 50.8001C84.172 50.6024 84.4927 50.5682 84.7243 50.7719C88.2623 53.9399 90.8821 56.7306 92.608 59.1281C94.3567 61.5574 95.0782 63.4333 95.0782 64.8005V94.1466C95.069 94.4454 94.8258 94.6727 94.5493 94.6727C94.2588 94.6727 94.037 94.4509 94.037 94.1604V64.8005C94.037 63.9271 93.7133 62.9922 93.2461 62.0745C92.7679 61.1352 92.0816 60.1029 91.2278 59.0059C89.5191 56.8101 87.0633 54.2575 84.0293 51.5345Z" fill="#3550AB" stroke="#3550AB" stroke-width="2.5"/>
<path d="M79.3318 47.6107L79.3266 47.6066C79.0977 47.4275 79.0557 47.1106 79.2287 46.8791C79.4089 46.6542 79.724 46.6144 79.9539 46.7877C79.9625 46.7944 79.9738 46.8033 79.9877 46.8141C80.3332 47.0839 82.2837 48.6068 84.7061 50.7702L84.7096 50.7733C84.9057 50.9472 84.941 51.2643 84.7424 51.4955C84.6368 51.6074 84.4956 51.6635 84.3583 51.6635C84.2508 51.6635 84.1244 51.6271 83.998 51.5211C82.7147 50.3807 81.554 49.4086 80.7111 48.7188C80.2883 48.3728 79.9451 48.0975 79.706 47.9072C79.5864 47.8121 79.4931 47.7384 79.4294 47.6881L79.3897 47.6568L79.3864 47.6534L79.3387 47.6161M79.3318 47.6107C79.3335 47.6122 79.3378 47.6157 79.345 47.6215L79.3485 47.6242C79.3447 47.621 79.3414 47.6183 79.3387 47.6161M79.3318 47.6107L79.3387 47.6161M79.3318 47.6107C79.3291 47.6084 79.332 47.6106 79.3387 47.6161M85.5387 49.8379C86.2702 50.4862 86.3201 51.6001 85.6717 52.3316C85.3226 52.714 84.8404 52.9135 84.3583 52.9135C83.9427 52.9135 83.5271 52.7639 83.1779 52.4646L85.5387 49.8379Z" fill="#3550AB" stroke="#3550AB" stroke-width="2.5"/>
<path d="M61.9808 91.148H45.1064C43.5357 91.148 42.25 89.8623 42.25 88.2916V29.123C42.25 27.5458 43.5423 26.25 45.1064 26.25H76.9933C78.5606 26.25 79.8497 27.5324 79.8497 29.123V57.0033C79.8497 57.2938 79.6279 57.5155 79.3374 57.5155C79.0469 57.5155 78.8251 57.2938 78.8251 57.0033V29.123C78.8251 28.1168 77.9995 27.2911 76.9933 27.2911H45.1064C44.1001 27.2911 43.2745 28.1168 43.2745 29.123V88.275C43.2745 89.2812 44.1002 90.1069 45.1064 90.1069H61.9808C62.2714 90.1069 62.4931 90.3286 62.4931 90.6191C62.4931 90.925 62.2561 91.148 61.9808 91.148Z" fill="#3550AB" stroke="#3550AB" stroke-width="2.5"/>
<path d="M52.5846 28.6244L52.5846 28.6285C52.599 33.0533 48.9902 36.6679 44.5412 36.6679C44.2507 36.6679 44.0289 36.4461 44.0289 36.1556C44.0289 35.8651 44.2507 35.6433 44.5412 35.6433C48.4259 35.6433 51.5601 32.4878 51.5601 28.6244C51.5601 28.3339 51.7818 28.1122 52.0723 28.1122C52.3629 28.1122 52.5846 28.3339 52.5846 28.6244Z" fill="#3550AB" stroke="#3550AB" stroke-width="2.5"/>
<path d="M51.2578 89.9014C50.9672 89.9014 50.7455 89.6797 50.7455 89.3892C50.7455 85.5045 47.59 82.3703 43.7266 82.3703C43.4361 82.3703 43.2144 82.1485 43.2144 81.858C43.2144 81.5675 43.4361 81.3458 43.7266 81.3458C48.1687 81.3458 51.779 84.9514 51.7866 89.3917C51.7773 89.6599 51.5322 89.9014 51.2578 89.9014Z" fill="#3550AB" stroke="#3550AB" stroke-width="2.5"/>
<path d="M78.5696 36.1556V36.1664L78.5698 36.1771C78.5741 36.43 78.3522 36.6679 78.074 36.6679C73.6257 36.6679 70.0139 33.0531 70.0139 28.6244C70.0139 28.3339 70.2356 28.1122 70.5262 28.1122C70.8167 28.1122 71.0384 28.3339 71.0384 28.6244C71.0384 32.5092 74.1939 35.6433 78.0573 35.6433C78.3479 35.6433 78.5696 35.8651 78.5696 36.1556Z" fill="#3550AB" stroke="#3550AB" stroke-width="2.5"/>
<circle cx="61.3767" cy="60.5" r="58.5" stroke="#B4FEFA" stroke-width="4"/>
</svg>
