<svg width="121" height="121" viewBox="0 0 121 121" fill="none" xmlns="http://www.w3.org/2000/svg">
<circle cx="60.5" cy="60.5" r="58.5" stroke="#B4FEFA" stroke-width="4"/>
<path fill-rule="evenodd" clip-rule="evenodd" d="M85.2689 63.1666H63.443V45.8218H59.1099V67.5038H85.2689V63.1666ZM62 93.6628C66.5263 93.6628 70.769 92.7954 74.7198 91.0605C78.6705 89.3256 82.1115 86.9904 85.051 84.051C87.9904 81.1115 90.3255 77.6664 92.0604 73.7156C93.7953 69.7648 94.6628 65.5263 94.6628 61C94.6628 56.4696 93.7953 52.231 92.0604 48.2802C90.3255 44.3295 87.9904 40.8843 85.051 37.9449C82.1115 35.0054 78.6705 32.6704 74.7198 30.9355C70.769 29.2006 66.5263 28.3331 62 28.3331C57.4696 28.3331 53.231 29.2006 49.2802 30.9355C45.3295 32.6704 41.8843 35.0054 38.9449 37.9449C36.0095 40.8843 33.6703 44.3295 31.9354 48.2802C30.2005 52.231 29.3372 56.4696 29.3372 61C29.3372 65.5263 30.2005 69.7648 31.9354 73.7156C33.6703 77.6664 36.0095 81.1115 38.9449 84.051C41.8843 86.9904 45.3295 89.3256 49.2802 91.0605C53.231 92.7954 57.4696 93.6628 62 93.6628ZM62 24C67.106 24 71.8996 24.962 76.3807 26.8901C80.8618 28.8182 84.7879 31.4657 88.159 34.8368C91.5301 38.2121 94.1818 42.1383 96.1099 46.6194C98.0339 51.0964 99 55.8899 99 61C99 66.106 98.0339 70.8995 96.1099 75.3806C94.1818 79.8617 91.5301 83.7879 88.159 87.159C84.7879 90.5301 80.8618 93.1818 76.3807 95.1099C71.8996 97.0339 67.106 98 62 98C56.894 98 52.1004 97.0339 47.6193 95.1099C43.1382 93.1818 39.2121 90.5301 35.841 87.159C32.4658 83.7879 29.8182 79.8617 27.8901 75.3806C25.962 70.8995 25 66.106 25 61C25 55.8899 25.962 51.0964 27.8901 46.6194C29.8182 42.1383 32.4658 38.2121 35.841 34.8368C39.2121 31.4657 43.1382 28.8182 47.6193 26.8901C52.1004 24.962 56.894 24 62 24Z" fill="#3550AB"/>
</svg>
