<svg width="121" height="121" viewBox="0 0 121 121" fill="none" xmlns="http://www.w3.org/2000/svg">
<circle cx="60.5" cy="60.5" r="58.5" stroke="#B4FEFA" stroke-width="4"/>
<path fill-rule="evenodd" clip-rule="evenodd" d="M75.8174 55.5395C75.8174 56.7221 76.7767 57.6814 77.9594 57.6814C79.1455 57.6814 80.1049 56.7221 80.1049 55.5395C80.1049 54.3568 79.1455 53.3975 77.9594 53.3975C76.7767 53.3975 75.8174 54.3568 75.8174 55.5395Z" fill="#3550AB"/>
<mask id="path-3-inside-1" fill="white">
<path fill-rule="evenodd" clip-rule="evenodd" d="M62.8326 52.6123H49.2585C48.512 52.6123 47.9084 52.0088 47.9084 51.2623C47.9084 50.5157 48.512 49.9087 49.2585 49.9087H62.8326C63.5792 49.9087 64.1827 50.5157 64.1827 51.2623C64.1827 52.0088 63.5792 52.6123 62.8326 52.6123Z"/>
</mask>
<path fill-rule="evenodd" clip-rule="evenodd" d="M62.8326 52.6123H49.2585C48.512 52.6123 47.9084 52.0088 47.9084 51.2623C47.9084 50.5157 48.512 49.9087 49.2585 49.9087H62.8326C63.5792 49.9087 64.1827 50.5157 64.1827 51.2623C64.1827 52.0088 63.5792 52.6123 62.8326 52.6123Z" fill="#3550AB"/>
<path d="M62.8326 49.6123H49.2585V55.6123H62.8326V49.6123ZM49.2585 49.6123C50.1688 49.6123 50.9084 50.352 50.9084 51.2623H44.9084C44.9084 53.6657 46.8551 55.6123 49.2585 55.6123V49.6123ZM50.9084 51.2623C50.9084 52.1625 50.1789 52.9087 49.2585 52.9087V46.9087C46.845 46.9087 44.9084 48.8689 44.9084 51.2623H50.9084ZM49.2585 52.9087H62.8326V46.9087H49.2585V52.9087ZM62.8326 52.9087C61.9122 52.9087 61.1827 52.1625 61.1827 51.2623H67.1827C67.1827 48.8689 65.2461 46.9087 62.8326 46.9087V52.9087ZM61.1827 51.2623C61.1827 50.352 61.9223 49.6123 62.8326 49.6123V55.6123C65.236 55.6123 67.1827 53.6657 67.1827 51.2623H61.1827Z" fill="#3550AB" mask="url(#path-3-inside-1)"/>
<mask id="path-5-inside-2" fill="white">
<path fill-rule="evenodd" clip-rule="evenodd" d="M55.4054 24.7037C52.7611 24.7037 50.6121 26.8526 50.6121 29.497C50.6121 32.1378 52.7611 34.2903 55.4054 34.2903C58.0463 34.2903 60.1987 32.1378 60.1987 29.497C60.1987 26.8526 58.0463 24.7037 55.4054 24.7037ZM55.4054 36.9904C51.2714 36.9904 47.9084 33.6309 47.9084 29.497C47.9084 25.363 51.2714 22 55.4054 22C59.5394 22 62.9024 25.363 62.9024 29.497C62.9024 33.6309 59.5394 36.9904 55.4054 36.9904Z"/>
</mask>
<path fill-rule="evenodd" clip-rule="evenodd" d="M55.4054 24.7037C52.7611 24.7037 50.6121 26.8526 50.6121 29.497C50.6121 32.1378 52.7611 34.2903 55.4054 34.2903C58.0463 34.2903 60.1987 32.1378 60.1987 29.497C60.1987 26.8526 58.0463 24.7037 55.4054 24.7037ZM55.4054 36.9904C51.2714 36.9904 47.9084 33.6309 47.9084 29.497C47.9084 25.363 51.2714 22 55.4054 22C59.5394 22 62.9024 25.363 62.9024 29.497C62.9024 33.6309 59.5394 36.9904 55.4054 36.9904Z" fill="#3550AB"/>
<path d="M55.4054 21.7037C51.1042 21.7037 47.6121 25.1958 47.6121 29.497H53.6121C53.6121 28.5095 54.4179 27.7037 55.4054 27.7037V21.7037ZM47.6121 29.497C47.6121 33.7933 51.1028 37.2903 55.4054 37.2903V31.2903C54.4193 31.2903 53.6121 30.4824 53.6121 29.497H47.6121ZM55.4054 37.2903C59.7031 37.2903 63.1987 33.7947 63.1987 29.497H57.1987C57.1987 30.481 56.3894 31.2903 55.4054 31.2903V37.2903ZM63.1987 29.497C63.1987 25.1943 59.7017 21.7037 55.4054 21.7037V27.7037C56.3908 27.7037 57.1987 28.5109 57.1987 29.497H63.1987ZM55.4054 33.9904C52.9265 33.9904 50.9084 31.9723 50.9084 29.497H44.9084C44.9084 35.2896 49.6164 39.9904 55.4054 39.9904V33.9904ZM50.9084 29.497C50.9084 27.0198 52.9283 25 55.4054 25V19C49.6146 19 44.9084 23.7061 44.9084 29.497H50.9084ZM55.4054 25C57.8825 25 59.9024 27.0198 59.9024 29.497H65.9024C65.9024 23.7061 61.1962 19 55.4054 19V25ZM59.9024 29.497C59.9024 31.9723 57.8843 33.9904 55.4054 33.9904V39.9904C61.1944 39.9904 65.9024 35.2896 65.9024 29.497H59.9024Z" fill="#3550AB" mask="url(#path-5-inside-2)"/>
<path fill-rule="evenodd" clip-rule="evenodd" d="M78.8371 93.9999H70.3354C68.6993 93.9999 67.3632 92.6673 67.3632 91.0276V88.0065H53.7089V91.0276C53.7089 92.6673 52.3762 93.9999 50.7366 93.9999H42.2349C40.5988 93.9999 39.2661 92.6673 39.2661 91.0276V85.3622C33.339 82.041 29.3795 75.9884 28.7201 69.2449C26.8224 68.4216 22.1093 66.1401 20.2045 63.098C19.9498 62.6899 19.9324 62.1771 20.1557 61.7514C20.3789 61.3258 20.8115 61.0537 21.2895 61.0293L28.8806 60.6874C30.4644 50.6298 39.0952 43.1817 49.4144 43.1817H71.682L83.0827 36.1557C83.5049 35.8941 84.0351 35.8871 84.4642 36.1348C84.8968 36.3825 85.155 36.843 85.141 37.3383L84.8759 47.5983C88.1168 50.138 90.5448 53.5986 91.8251 57.4849H96.0324C96.3742 57.4675 97.3231 57.4919 98.1429 58.228C98.8721 58.8838 99.2419 59.8537 99.2419 61.12V71.6451C99.2419 72.4126 98.9558 73.0754 98.4185 73.5533C97.5185 74.3522 96.2417 74.3208 95.823 74.2859H91.6263C89.875 79.1211 86.362 83.1679 81.8094 85.5889V91.0276C81.8094 92.6673 80.4768 93.9999 78.8371 93.9999Z" stroke="#3550AB" stroke-width="3.5"/>
</svg>
