<svg width="121" height="121" viewBox="0 0 121 121" fill="none" xmlns="http://www.w3.org/2000/svg">
<path d="M71.9794 19.607L70.3462 18L61.293 26.9023L61.293 28.5093L69.5763 36.6538L71.2105 35.0478L65.0124 28.953C82.2736 30.2698 95.9128 44.4934 95.9128 61.7988L98.2231 61.7978C98.2231 43.169 83.4425 27.8824 64.8091 26.6569L71.9794 19.607Z" fill="#3550AB" stroke="#3550AB"/>
<path d="M49.2437 104.393L50.8769 106L59.9301 97.0977L59.9301 95.4907L51.6468 87.3462L50.0126 88.9522L56.2107 95.047C38.9495 93.7302 25.3104 79.5066 25.3104 62.2012L23 62.2022C23 80.831 37.7806 96.1176 56.4141 97.3431L49.2437 104.393Z" fill="#3550AB" stroke="#3550AB"/>
<path d="M61.1738 50.821C63.495 50.821 65.3834 52.5012 65.3834 54.5664C65.3834 55.6526 66.2403 56.5334 67.2969 56.5334C68.3535 56.5334 69.2104 55.6526 69.2104 54.5664C69.2104 50.962 66.5977 47.9314 63.0873 47.1088V46.0858C63.0873 44.9997 62.2304 44.1189 61.1738 44.1189C60.1172 44.1189 59.2603 44.9997 59.2603 46.0858V47.1088C55.7499 47.9314 53.1372 50.962 53.1372 54.5664C53.1372 58.8007 56.7424 62.2455 61.1738 62.2455C63.495 62.2455 65.3834 63.9257 65.3834 65.991C65.3834 68.0562 63.495 69.7364 61.1738 69.7364C58.8526 69.7364 56.9642 68.0562 56.9642 65.991C56.9642 64.9048 56.1073 64.024 55.0507 64.024C53.9941 64.024 53.1372 64.9048 53.1372 65.991C53.1372 69.5954 55.7499 72.626 59.2603 73.4486V74.2983C59.2603 75.3844 60.1172 76.2652 61.1738 76.2652C62.2304 76.2652 63.0873 75.3844 63.0873 74.2983V73.4486C66.5977 72.626 69.2104 69.5954 69.2104 65.991C69.2104 61.7566 65.6052 58.3117 61.1738 58.3117C58.8526 58.3117 56.9642 56.6315 56.9642 54.5664C56.9642 52.5012 58.8526 50.821 61.1738 50.821Z" fill="#3550AB"/>
<circle cx="60.5" cy="60.5" r="58.5" stroke="#B4FEFA" stroke-width="4"/>
</svg>
