<svg width="122" height="121" viewBox="0 0 122 121" fill="none" xmlns="http://www.w3.org/2000/svg">
<circle cx="61.3767" cy="60.5" r="58.5" stroke="#B4FEFA" stroke-width="4"/>
<mask id="path-2-outside-1" maskUnits="userSpaceOnUse" x="27.8767" y="24" width="67" height="69" fill="black">
<rect fill="white" x="27.8767" y="24" width="67" height="69"/>
<path d="M91.7273 64.6393H90.7232V55.5171C90.7232 54.0728 90.0111 52.7943 88.9226 52.0172V50.7754C88.9226 48.9735 87.4693 47.5078 85.6828 47.5078H84.9328L87.8014 43.2623C88.7633 41.8392 88.3972 39.8927 86.9869 38.9227L67.5209 25.5435C66.8375 25.0736 66.0138 24.9001 65.2006 25.0555C64.3879 25.211 63.684 25.6765 63.2181 26.3658L46.4172 51.2311H41.7416L42.8696 39.7146C42.8824 39.5847 42.9663 39.4725 43.0827 39.4279C44.5359 38.8754 45.7954 37.8434 46.629 36.5223C46.6944 36.4177 46.8186 36.3584 46.9465 36.372L54.2799 37.1026C54.8053 37.1536 55.273 36.7677 55.3247 36.2378C55.3767 35.7073 54.9933 35.2354 54.4673 35.1832L47.1346 34.4526C46.2835 34.3687 45.4715 34.7644 45.0153 35.4865C44.4029 36.4586 43.4769 37.2168 42.4083 37.6234C41.604 37.9294 41.0517 38.658 40.9665 39.5248L39.8205 51.2311H38.6009L40.3848 33.0166C40.4489 32.3609 41.0293 31.8794 41.68 31.9452L56.499 33.4213C57.0243 33.4722 57.4922 33.0862 57.544 32.5563C57.5966 32.0265 57.2126 31.5547 56.6866 31.5024L41.8682 30.0258C40.1692 29.8568 38.65 31.1133 38.4818 32.8268L37.044 47.5078H34.5949C32.809 47.5078 31.3557 48.9735 31.3557 50.7754V51.6228C29.8942 52.3011 28.8767 53.7914 28.8767 55.5171V88.3893C28.8767 90.7529 30.783 92.6755 33.1264 92.6755H86.4737C88.8171 92.6755 90.7232 90.7529 90.7232 88.3893V79.2672H91.7273C92.9131 79.2672 93.8767 78.2946 93.8767 77.0993V66.8071C93.8774 65.6119 92.9131 64.6393 91.7273 64.6393ZM85.6828 49.4368C86.4149 49.4361 87.0098 50.037 87.0098 50.7754V51.2666C86.8346 51.244 86.6553 51.2318 86.4737 51.2318H82.4172L83.63 49.4368H85.6828ZM64.7988 27.4513C64.9765 27.1879 65.246 27.0098 65.5569 26.9505C65.6313 26.9363 65.7055 26.9292 65.7797 26.9292C66.0151 26.9292 66.2456 27.0001 66.4445 27.137L85.91 40.5161C86.4494 40.8872 86.5895 41.632 86.2216 42.1761L80.1033 51.2311H78.6347L81.6347 46.7914C82.1211 46.0717 82.1614 45.1552 81.739 44.4001C81.1778 43.3972 80.9499 42.2154 81.0985 41.0737C81.2084 40.2245 80.8381 39.3951 80.1309 38.9096L70.0402 31.9736C69.3337 31.4883 68.4327 31.4437 67.6891 31.8574C66.6895 32.4137 65.5166 32.6325 64.3853 32.4731C63.547 32.3544 62.696 32.7364 62.2167 33.4451L50.1991 51.2311H48.7311L64.7988 27.4513ZM65.2198 43.827C61.0559 43.827 57.6382 47.1019 57.359 51.2311H52.513L63.7965 34.5312C63.8612 34.4364 63.9674 34.3797 64.0762 34.3797C64.0909 34.3797 64.1056 34.3809 64.1197 34.3829C65.6581 34.5998 67.254 34.3029 68.6132 33.5458C68.72 33.4864 68.8576 33.4948 68.9631 33.5677L79.0546 40.5032C79.1601 40.5761 79.2177 40.702 79.2023 40.8239C79.0008 42.3768 79.3105 43.9833 80.0734 45.3475C80.1348 45.4572 80.1271 45.598 80.0547 45.7057L76.3215 51.2311H73.0797C72.8014 47.1019 69.3837 43.827 65.2198 43.827ZM71.1625 51.2311H59.2763C59.5507 48.1661 62.1104 45.7561 65.2198 45.7561C68.3284 45.7561 70.8886 48.1661 71.1625 51.2311ZM33.2678 50.7754C33.2678 50.037 33.863 49.4361 34.5949 49.4361H36.8551L36.6791 51.2311H33.2678V50.7754ZM30.7888 55.5171C30.7888 54.2173 31.8375 53.1596 33.1264 53.1596H86.4737C87.7631 53.1596 88.8113 54.2173 88.8113 55.5171V58.1929H30.7888V55.5171ZM88.8113 88.3893C88.8113 89.6891 87.7631 90.7464 86.4737 90.7464H33.1264C31.8375 90.7464 30.7888 89.6891 30.7888 88.3893V85.7136H35.9452C36.4731 85.7136 36.9013 85.2818 36.9013 84.7493C36.9013 84.2168 36.4731 83.7851 35.9452 83.7851H30.7888V60.1214H88.8113V64.6393H79.7207C76.8565 64.6393 74.375 66.323 73.1975 68.7607C73.1937 68.7692 73.1891 68.7769 73.1854 68.7853C73.175 68.806 73.1668 68.8273 73.1565 68.8486C73.0165 69.1487 72.8947 69.4598 72.7956 69.7805L72.795 69.7831C72.5832 70.4691 72.4687 71.1978 72.4687 71.953C72.4687 75.9861 75.7219 79.2672 79.72 79.2672H88.8113V83.7851H42.0672C41.5386 83.7851 41.1112 84.2168 41.1112 84.7493C41.1112 85.2818 41.5386 85.7136 42.0672 85.7136H88.8113V88.3893ZM91.9648 77.0993C91.9648 77.231 91.8585 77.3381 91.7273 77.3381H79.7207C77.6967 77.3381 75.9317 76.1964 75.027 74.5177C74.9854 74.4416 74.9464 74.3641 74.9085 74.2861C74.8337 74.1293 74.7659 73.9679 74.7057 73.8027C74.4959 73.2257 74.3814 72.6028 74.3814 71.953C74.3814 71.3037 74.4959 70.6808 74.7057 70.1038C74.7659 69.9386 74.8337 69.7773 74.9085 69.6204C74.9464 69.5424 74.9854 69.4649 75.027 69.3887C75.9317 67.7101 77.6967 66.5684 79.7207 66.5684H91.7273C91.8585 66.5684 91.9648 66.6755 91.9648 66.8071V77.0993Z"/>
</mask>
<path d="M91.7273 64.6393H90.7232V55.5171C90.7232 54.0728 90.0111 52.7943 88.9226 52.0172V50.7754C88.9226 48.9735 87.4693 47.5078 85.6828 47.5078H84.9328L87.8014 43.2623C88.7633 41.8392 88.3972 39.8927 86.9869 38.9227L67.5209 25.5435C66.8375 25.0736 66.0138 24.9001 65.2006 25.0555C64.3879 25.211 63.684 25.6765 63.2181 26.3658L46.4172 51.2311H41.7416L42.8696 39.7146C42.8824 39.5847 42.9663 39.4725 43.0827 39.4279C44.5359 38.8754 45.7954 37.8434 46.629 36.5223C46.6944 36.4177 46.8186 36.3584 46.9465 36.372L54.2799 37.1026C54.8053 37.1536 55.273 36.7677 55.3247 36.2378C55.3767 35.7073 54.9933 35.2354 54.4673 35.1832L47.1346 34.4526C46.2835 34.3687 45.4715 34.7644 45.0153 35.4865C44.4029 36.4586 43.4769 37.2168 42.4083 37.6234C41.604 37.9294 41.0517 38.658 40.9665 39.5248L39.8205 51.2311H38.6009L40.3848 33.0166C40.4489 32.3609 41.0293 31.8794 41.68 31.9452L56.499 33.4213C57.0243 33.4722 57.4922 33.0862 57.544 32.5563C57.5966 32.0265 57.2126 31.5547 56.6866 31.5024L41.8682 30.0258C40.1692 29.8568 38.65 31.1133 38.4818 32.8268L37.044 47.5078H34.5949C32.809 47.5078 31.3557 48.9735 31.3557 50.7754V51.6228C29.8942 52.3011 28.8767 53.7914 28.8767 55.5171V88.3893C28.8767 90.7529 30.783 92.6755 33.1264 92.6755H86.4737C88.8171 92.6755 90.7232 90.7529 90.7232 88.3893V79.2672H91.7273C92.9131 79.2672 93.8767 78.2946 93.8767 77.0993V66.8071C93.8774 65.6119 92.9131 64.6393 91.7273 64.6393ZM85.6828 49.4368C86.4149 49.4361 87.0098 50.037 87.0098 50.7754V51.2666C86.8346 51.244 86.6553 51.2318 86.4737 51.2318H82.4172L83.63 49.4368H85.6828ZM64.7988 27.4513C64.9765 27.1879 65.246 27.0098 65.5569 26.9505C65.6313 26.9363 65.7055 26.9292 65.7797 26.9292C66.0151 26.9292 66.2456 27.0001 66.4445 27.137L85.91 40.5161C86.4494 40.8872 86.5895 41.632 86.2216 42.1761L80.1033 51.2311H78.6347L81.6347 46.7914C82.1211 46.0717 82.1614 45.1552 81.739 44.4001C81.1778 43.3972 80.9499 42.2154 81.0985 41.0737C81.2084 40.2245 80.8381 39.3951 80.1309 38.9096L70.0402 31.9736C69.3337 31.4883 68.4327 31.4437 67.6891 31.8574C66.6895 32.4137 65.5166 32.6325 64.3853 32.4731C63.547 32.3544 62.696 32.7364 62.2167 33.4451L50.1991 51.2311H48.7311L64.7988 27.4513ZM65.2198 43.827C61.0559 43.827 57.6382 47.1019 57.359 51.2311H52.513L63.7965 34.5312C63.8612 34.4364 63.9674 34.3797 64.0762 34.3797C64.0909 34.3797 64.1056 34.3809 64.1197 34.3829C65.6581 34.5998 67.254 34.3029 68.6132 33.5458C68.72 33.4864 68.8576 33.4948 68.9631 33.5677L79.0546 40.5032C79.1601 40.5761 79.2177 40.702 79.2023 40.8239C79.0008 42.3768 79.3105 43.9833 80.0734 45.3475C80.1348 45.4572 80.1271 45.598 80.0547 45.7057L76.3215 51.2311H73.0797C72.8014 47.1019 69.3837 43.827 65.2198 43.827ZM71.1625 51.2311H59.2763C59.5507 48.1661 62.1104 45.7561 65.2198 45.7561C68.3284 45.7561 70.8886 48.1661 71.1625 51.2311ZM33.2678 50.7754C33.2678 50.037 33.863 49.4361 34.5949 49.4361H36.8551L36.6791 51.2311H33.2678V50.7754ZM30.7888 55.5171C30.7888 54.2173 31.8375 53.1596 33.1264 53.1596H86.4737C87.7631 53.1596 88.8113 54.2173 88.8113 55.5171V58.1929H30.7888V55.5171ZM88.8113 88.3893C88.8113 89.6891 87.7631 90.7464 86.4737 90.7464H33.1264C31.8375 90.7464 30.7888 89.6891 30.7888 88.3893V85.7136H35.9452C36.4731 85.7136 36.9013 85.2818 36.9013 84.7493C36.9013 84.2168 36.4731 83.7851 35.9452 83.7851H30.7888V60.1214H88.8113V64.6393H79.7207C76.8565 64.6393 74.375 66.323 73.1975 68.7607C73.1937 68.7692 73.1891 68.7769 73.1854 68.7853C73.175 68.806 73.1668 68.8273 73.1565 68.8486C73.0165 69.1487 72.8947 69.4598 72.7956 69.7805L72.795 69.7831C72.5832 70.4691 72.4687 71.1978 72.4687 71.953C72.4687 75.9861 75.7219 79.2672 79.72 79.2672H88.8113V83.7851H42.0672C41.5386 83.7851 41.1112 84.2168 41.1112 84.7493C41.1112 85.2818 41.5386 85.7136 42.0672 85.7136H88.8113V88.3893ZM91.9648 77.0993C91.9648 77.231 91.8585 77.3381 91.7273 77.3381H79.7207C77.6967 77.3381 75.9317 76.1964 75.027 74.5177C74.9854 74.4416 74.9464 74.3641 74.9085 74.2861C74.8337 74.1293 74.7659 73.9679 74.7057 73.8027C74.4959 73.2257 74.3814 72.6028 74.3814 71.953C74.3814 71.3037 74.4959 70.6808 74.7057 70.1038C74.7659 69.9386 74.8337 69.7773 74.9085 69.6204C74.9464 69.5424 74.9854 69.4649 75.027 69.3887C75.9317 67.7101 77.6967 66.5684 79.7207 66.5684H91.7273C91.8585 66.5684 91.9648 66.6755 91.9648 66.8071V77.0993Z" fill="#3550AB"/>
<path d="M91.7273 64.6393H90.7232V55.5171C90.7232 54.0728 90.0111 52.7943 88.9226 52.0172V50.7754C88.9226 48.9735 87.4693 47.5078 85.6828 47.5078H84.9328L87.8014 43.2623C88.7633 41.8392 88.3972 39.8927 86.9869 38.9227L67.5209 25.5435C66.8375 25.0736 66.0138 24.9001 65.2006 25.0555C64.3879 25.211 63.684 25.6765 63.2181 26.3658L46.4172 51.2311H41.7416L42.8696 39.7146C42.8824 39.5847 42.9663 39.4725 43.0827 39.4279C44.5359 38.8754 45.7954 37.8434 46.629 36.5223C46.6944 36.4177 46.8186 36.3584 46.9465 36.372L54.2799 37.1026C54.8053 37.1536 55.273 36.7677 55.3247 36.2378C55.3767 35.7073 54.9933 35.2354 54.4673 35.1832L47.1346 34.4526C46.2835 34.3687 45.4715 34.7644 45.0153 35.4865C44.4029 36.4586 43.4769 37.2168 42.4083 37.6234C41.604 37.9294 41.0517 38.658 40.9665 39.5248L39.8205 51.2311H38.6009L40.3848 33.0166C40.4489 32.3609 41.0293 31.8794 41.68 31.9452L56.499 33.4213C57.0243 33.4722 57.4922 33.0862 57.544 32.5563C57.5966 32.0265 57.2126 31.5547 56.6866 31.5024L41.8682 30.0258C40.1692 29.8568 38.65 31.1133 38.4818 32.8268L37.044 47.5078H34.5949C32.809 47.5078 31.3557 48.9735 31.3557 50.7754V51.6228C29.8942 52.3011 28.8767 53.7914 28.8767 55.5171V88.3893C28.8767 90.7529 30.783 92.6755 33.1264 92.6755H86.4737C88.8171 92.6755 90.7232 90.7529 90.7232 88.3893V79.2672H91.7273C92.9131 79.2672 93.8767 78.2946 93.8767 77.0993V66.8071C93.8774 65.6119 92.9131 64.6393 91.7273 64.6393ZM85.6828 49.4368C86.4149 49.4361 87.0098 50.037 87.0098 50.7754V51.2666C86.8346 51.244 86.6553 51.2318 86.4737 51.2318H82.4172L83.63 49.4368H85.6828ZM64.7988 27.4513C64.9765 27.1879 65.246 27.0098 65.5569 26.9505C65.6313 26.9363 65.7055 26.9292 65.7797 26.9292C66.0151 26.9292 66.2456 27.0001 66.4445 27.137L85.91 40.5161C86.4494 40.8872 86.5895 41.632 86.2216 42.1761L80.1033 51.2311H78.6347L81.6347 46.7914C82.1211 46.0717 82.1614 45.1552 81.739 44.4001C81.1778 43.3972 80.9499 42.2154 81.0985 41.0737C81.2084 40.2245 80.8381 39.3951 80.1309 38.9096L70.0402 31.9736C69.3337 31.4883 68.4327 31.4437 67.6891 31.8574C66.6895 32.4137 65.5166 32.6325 64.3853 32.4731C63.547 32.3544 62.696 32.7364 62.2167 33.4451L50.1991 51.2311H48.7311L64.7988 27.4513ZM65.2198 43.827C61.0559 43.827 57.6382 47.1019 57.359 51.2311H52.513L63.7965 34.5312C63.8612 34.4364 63.9674 34.3797 64.0762 34.3797C64.0909 34.3797 64.1056 34.3809 64.1197 34.3829C65.6581 34.5998 67.254 34.3029 68.6132 33.5458C68.72 33.4864 68.8576 33.4948 68.9631 33.5677L79.0546 40.5032C79.1601 40.5761 79.2177 40.702 79.2023 40.8239C79.0008 42.3768 79.3105 43.9833 80.0734 45.3475C80.1348 45.4572 80.1271 45.598 80.0547 45.7057L76.3215 51.2311H73.0797C72.8014 47.1019 69.3837 43.827 65.2198 43.827ZM71.1625 51.2311H59.2763C59.5507 48.1661 62.1104 45.7561 65.2198 45.7561C68.3284 45.7561 70.8886 48.1661 71.1625 51.2311ZM33.2678 50.7754C33.2678 50.037 33.863 49.4361 34.5949 49.4361H36.8551L36.6791 51.2311H33.2678V50.7754ZM30.7888 55.5171C30.7888 54.2173 31.8375 53.1596 33.1264 53.1596H86.4737C87.7631 53.1596 88.8113 54.2173 88.8113 55.5171V58.1929H30.7888V55.5171ZM88.8113 88.3893C88.8113 89.6891 87.7631 90.7464 86.4737 90.7464H33.1264C31.8375 90.7464 30.7888 89.6891 30.7888 88.3893V85.7136H35.9452C36.4731 85.7136 36.9013 85.2818 36.9013 84.7493C36.9013 84.2168 36.4731 83.7851 35.9452 83.7851H30.7888V60.1214H88.8113V64.6393H79.7207C76.8565 64.6393 74.375 66.323 73.1975 68.7607C73.1937 68.7692 73.1891 68.7769 73.1854 68.7853C73.175 68.806 73.1668 68.8273 73.1565 68.8486C73.0165 69.1487 72.8947 69.4598 72.7956 69.7805L72.795 69.7831C72.5832 70.4691 72.4687 71.1978 72.4687 71.953C72.4687 75.9861 75.7219 79.2672 79.72 79.2672H88.8113V83.7851H42.0672C41.5386 83.7851 41.1112 84.2168 41.1112 84.7493C41.1112 85.2818 41.5386 85.7136 42.0672 85.7136H88.8113V88.3893ZM91.9648 77.0993C91.9648 77.231 91.8585 77.3381 91.7273 77.3381H79.7207C77.6967 77.3381 75.9317 76.1964 75.027 74.5177C74.9854 74.4416 74.9464 74.3641 74.9085 74.2861C74.8337 74.1293 74.7659 73.9679 74.7057 73.8027C74.4959 73.2257 74.3814 72.6028 74.3814 71.953C74.3814 71.3037 74.4959 70.6808 74.7057 70.1038C74.7659 69.9386 74.8337 69.7773 74.9085 69.6204C74.9464 69.5424 74.9854 69.4649 75.027 69.3887C75.9317 67.7101 77.6967 66.5684 79.7207 66.5684H91.7273C91.8585 66.5684 91.9648 66.6755 91.9648 66.8071V77.0993Z" stroke="#3550AB" stroke-width="0.6" mask="url(#path-2-outside-1)"/>
<mask id="path-3-inside-2" fill="white">
<path d="M79.8227 67.7424C77.885 67.7424 76.3091 69.3406 76.3091 71.3044C76.3091 73.2686 77.885 74.8662 79.8227 74.8662C81.7602 74.8662 83.3361 73.2686 83.3361 71.3044C83.3361 69.3406 81.7602 67.7424 79.8227 67.7424V67.7424ZM79.8227 73.1105C78.8401 73.1105 78.0409 72.3003 78.0409 71.3044C78.0409 70.3089 78.8401 69.4987 79.8227 69.4987C80.8051 69.4987 81.6042 70.3089 81.6042 71.3044C81.6042 72.3003 80.8051 73.1105 79.8227 73.1105Z"/>
</mask>
<path d="M79.8227 67.7424C77.885 67.7424 76.3091 69.3406 76.3091 71.3044C76.3091 73.2686 77.885 74.8662 79.8227 74.8662C81.7602 74.8662 83.3361 73.2686 83.3361 71.3044C83.3361 69.3406 81.7602 67.7424 79.8227 67.7424V67.7424ZM79.8227 73.1105C78.8401 73.1105 78.0409 72.3003 78.0409 71.3044C78.0409 70.3089 78.8401 69.4987 79.8227 69.4987C80.8051 69.4987 81.6042 70.3089 81.6042 71.3044C81.6042 72.3003 80.8051 73.1105 79.8227 73.1105Z" fill="#3550AB"/>
<path d="M79.8227 65.7424C76.7545 65.7424 74.3091 68.2622 74.3091 71.3044H78.3091C78.3091 70.4191 79.0155 69.7424 79.8227 69.7424V65.7424ZM74.3091 71.3044C74.3091 74.3473 76.7548 76.8662 79.8227 76.8662V72.8662C79.0152 72.8662 78.3091 72.1898 78.3091 71.3044H74.3091ZM79.8227 76.8662C82.8904 76.8662 85.3361 74.3473 85.3361 71.3044H81.3361C81.3361 72.1899 80.6299 72.8662 79.8227 72.8662V76.8662ZM85.3361 71.3044C85.3361 68.2622 82.8907 65.7424 79.8227 65.7424V69.7424C80.6297 69.7424 81.3361 70.4191 81.3361 71.3044H85.3361ZM79.8227 71.1105C79.9703 71.1105 80.0409 71.2215 80.0409 71.3044H76.0409C76.0409 73.3791 77.71 75.1105 79.8227 75.1105V71.1105ZM80.0409 71.3044C80.0409 71.388 79.9699 71.4987 79.8227 71.4987V67.4987C77.7103 67.4987 76.0409 69.2298 76.0409 71.3044H80.0409ZM79.8227 71.4987C79.6751 71.4987 79.6042 71.3879 79.6042 71.3044H83.6042C83.6042 69.2299 81.935 67.4987 79.8227 67.4987V71.4987ZM79.6042 71.3044C79.6042 71.2216 79.6748 71.1105 79.8227 71.1105V75.1105C81.9353 75.1105 83.6042 73.379 83.6042 71.3044H79.6042Z" fill="#3550AB" mask="url(#path-3-inside-2)"/>
</svg>
