<svg width="288" height="296" viewBox="0 0 288 296" fill="none" xmlns="http://www.w3.org/2000/svg">
<path fill-rule="evenodd" clip-rule="evenodd" d="M225.617 234.69C233.062 227.561 237.745 218.721 240.855 209.001C242.535 203.756 243.686 198.356 244.29 192.881C244.301 192.52 244.416 192.171 244.621 191.873C244.826 191.576 245.112 191.344 245.445 191.205C257.837 184.611 264.464 174.251 265.295 160.285C265.333 159.62 265.295 158.936 265.305 158.27L264.542 156.645C263.926 156 263.165 155.511 262.324 155.217C261.482 154.923 260.582 154.833 259.699 154.954C249.195 155.573 238.798 156.047 228.345 156.574C227.951 156.597 227.558 156.593 227.148 156.611C228.784 145.047 222.491 134.902 211.951 130.019C179.455 114.796 147.117 99.3639 114.7 84.0229C109.852 81.6924 104.37 81.0325 99.1076 82.146C93.8456 83.2594 89.1003 86.0837 85.6123 90.178C85.3873 90.4457 85.146 90.7075 84.8709 91.0122L84.1193 90.0161C77.7672 81.4104 71.3761 72.8365 65.074 64.1938C63.7417 62.3641 62.2161 61.3 59.915 61.5719L58.4892 62.242C56.9662 63.7674 55.3145 65.1914 53.9033 66.8398C46.0808 76.0353 43.6025 86.5243 46.0538 98.2858C46.1549 98.6328 46.1558 99.0013 46.0565 99.3488C45.9572 99.6963 45.7617 100.009 45.4926 100.25C37.493 108.638 31.1296 118.038 27.4623 129.127C26.0449 133.448 25.1869 137.932 24.9092 142.471L26.1239 145.314L25.7136 144.441C26.3687 145.092 27.1782 145.566 28.0664 145.819C28.9545 146.071 29.8923 146.095 30.7919 145.886C39.9157 144.742 49.0545 143.659 58.188 142.564C59.1852 142.446 60.1765 142.344 61.223 142.217L61.1724 143.401C60.7849 147.216 61.3268 151.068 62.7517 154.628C65.0223 160.455 69.4736 165.168 75.1615 167.768L109.679 184.105C131.103 194.24 152.537 204.367 173.979 214.484C182.438 218.443 190.66 217.561 198.385 212.378C199.903 211.242 201.357 210.022 202.74 208.726L202.937 208.971C208.021 216.917 213.1 224.853 218.111 232.874C219.279 234.727 220.612 236.098 222.932 236.155L225.384 235.056C225.445 234.924 225.524 234.801 225.617 234.69ZM112.931 88.039C119.228 91.0072 125.526 93.9846 131.823 96.9711C132.12 97.1149 132.412 97.2749 132.854 97.4988L74.2023 122.69L77.2383 116.23L85.9376 97.7031C87.0362 95.2624 88.6157 93.0684 90.5817 91.2522C92.5477 89.436 94.8597 88.0349 97.3796 87.1327C99.8995 86.2306 102.575 85.8458 105.247 86.0015C107.919 86.1572 110.532 86.8502 112.931 88.039ZM59.5578 138.128C49.9718 139.179 40.3819 140.394 30.8206 141.555C30.3877 141.61 29.9392 141.632 29.2879 141.682C29.6295 139.537 29.832 137.499 30.2574 135.505C32.1808 126.803 36.0264 118.643 41.5124 111.62C44.1654 108.106 47.2044 104.897 50.1524 101.609C50.4592 101.337 50.6778 100.98 50.7799 100.583C50.882 100.187 50.8631 99.7685 50.7254 99.3826C48.59 92.1539 49.0763 84.4033 52.0983 77.4981C53.917 73.3324 56.6124 69.6078 60.001 66.5781C60.2747 66.328 60.5641 66.1111 60.9763 65.7824L66.2872 72.9478C71.4597 79.9624 76.6212 86.9822 81.8269 93.9812C82.0608 94.2332 82.2059 94.5547 82.24 94.8968C82.2741 95.239 82.1953 95.5828 82.0158 95.876C75.752 109.048 69.5005 122.161 63.422 135.354C63.1347 136.159 62.6045 136.855 61.9046 137.346C61.2048 137.837 60.3697 138.099 59.5149 138.094L59.5578 138.128ZM78.7365 163.631C78.3605 163.818 77.9441 163.907 77.5248 163.892C77.1056 163.877 76.6966 163.758 76.3348 163.546C71.7811 161.22 68.2915 157.239 66.5836 152.419C64.8757 147.6 65.0792 142.309 67.1525 137.635C68.6556 134.23 70.2822 130.915 71.8814 127.6C72.1148 127.149 72.4903 126.787 72.9499 126.571C93.8961 117.545 114.854 108.545 135.825 99.5704C136.28 99.3891 136.786 99.3819 137.246 99.5503C151.43 106.225 165.609 112.919 179.785 119.633C179.888 119.68 179.974 119.747 180.28 119.94L179.12 120.486C145.636 134.838 112.16 149.209 78.6936 163.598L78.7365 163.631ZM101.278 175.302C94.639 172.201 88.2231 169.145 81.7519 166.114C81.6278 166.051 81.5095 165.971 81.2782 165.824C81.6208 165.663 81.875 165.543 82.1182 165.429C115.802 150.965 149.487 136.505 183.174 122.048C183.593 121.867 184.064 121.847 184.497 121.993C191.008 125.032 197.511 128.102 204.006 131.202C204.208 131.32 204.404 131.449 204.592 131.588L203.365 132.165C169.847 146.56 136.333 160.962 102.822 175.372C102.299 175.543 101.731 175.506 101.235 175.268L101.278 175.302ZM173.18 187.778C165.547 191.06 157.91 194.343 150.269 197.629C149.977 197.781 149.653 197.862 149.323 197.865C148.993 197.867 148.668 197.791 148.373 197.643C134.371 190.991 120.363 184.355 106.349 177.736C106.122 177.627 105.917 177.507 105.502 177.284L106.607 176.764C140.081 162.39 173.551 148.008 207.018 133.619C207.396 133.44 207.812 133.352 208.231 133.361C208.649 133.37 209.06 133.477 209.431 133.672C213.328 135.39 216.864 137.573 219.323 141.168C221.365 143.941 222.637 147.205 223.012 150.628C223.386 154.052 222.849 157.513 221.455 160.663C220.439 163.151 219.211 165.563 218.011 167.976C217.721 168.435 217.291 168.788 216.784 168.984C202.25 175.249 187.701 181.502 173.137 187.744L173.18 187.778ZM175.708 210.555L154.211 200.418L152.992 199.803L215.944 172.766C215.641 173.327 215.453 173.645 215.297 173.974C211.043 182.972 206.791 191.974 202.541 200.98C201.428 203.392 199.844 205.556 197.882 207.347C195.921 209.138 193.62 210.518 191.117 211.407C188.614 212.295 185.959 212.674 183.307 212.521C180.655 212.368 178.061 211.686 175.676 210.516L175.708 210.555ZM218.458 225.371C214.237 218.746 210.017 212.12 205.813 205.473C205.716 205.296 205.657 205.099 205.641 204.897C205.625 204.696 205.653 204.493 205.721 204.302C209.992 195.224 214.277 186.157 218.576 177.102C221.018 171.906 223.417 166.731 225.87 161.529C226.008 161.37 226.177 161.242 226.368 161.152C226.558 161.063 226.765 161.014 226.975 161.01C234.966 160.574 242.957 160.16 250.95 159.767L261.004 159.252C260.987 159.962 261.015 160.596 260.951 161.207C259.84 173.199 253.969 182.125 243.194 187.594C242.257 187.951 241.448 188.581 240.872 189.403C240.296 190.224 239.979 191.199 239.963 192.203C238.996 202.913 235.619 213.266 230.082 222.485C227.973 225.899 225.417 229.015 222.482 231.751L218.458 225.371Z" fill="#3F4EA9" fill-opacity="0.07"/>
</svg>
