<svg width="59" height="50" viewBox="0 0 59 50" fill="none" xmlns="http://www.w3.org/2000/svg">
<path d="M39.3416 29.0195H46.0409C46.561 29.0212 47.0677 29.1848 47.4907 29.4876C47.9136 29.7904 48.2318 30.2173 48.4011 30.7092" fill="#00C3B8"/>
<path d="M48.4009 31.8858C48.1551 31.8857 47.9153 31.8091 47.715 31.6665C47.5148 31.5239 47.3638 31.3225 47.2833 31.0903C47.1943 30.8314 47.0267 30.6067 46.804 30.4476C46.5813 30.2885 46.3144 30.2029 46.0407 30.2027H39.3414C39.0275 30.2027 38.7265 30.078 38.5046 29.8561C38.2826 29.6342 38.158 29.3332 38.158 29.0193C38.158 28.7055 38.2826 28.4045 38.5046 28.1825C38.7265 27.9606 39.0275 27.8359 39.3414 27.8359H46.0407C46.8069 27.8368 47.5538 28.0766 48.1772 28.5221C48.8006 28.9676 49.2695 29.5964 49.5185 30.3211C49.5804 30.4993 49.5987 30.6898 49.572 30.8766C49.5453 31.0634 49.4742 31.2411 49.3649 31.3949C49.2555 31.5486 49.1109 31.674 48.9432 31.7606C48.7755 31.8471 48.5896 31.8923 48.4009 31.8924" fill="#00C3B8"/>
<path d="M46.0408 23.2405H31.5179C30.5437 23.2388 29.6099 22.851 28.9211 22.1622C28.2323 21.4733 27.8445 20.5396 27.8428 19.5654V17.5931C27.8445 16.6189 28.2323 15.6851 28.9211 14.9963C29.6099 14.3075 30.5437 13.9197 31.5179 13.918H46.0408C47.0149 13.9197 47.9487 14.3075 48.6375 14.9963C49.3264 15.6851 49.7141 16.6189 49.7159 17.5931V19.5654C49.7141 20.5396 49.3264 21.4733 48.6375 22.1622C47.9487 22.851 47.0149 23.2388 46.0408 23.2405ZM31.5179 16.2782C31.1691 16.2782 30.8347 16.4167 30.5881 16.6633C30.3415 16.9099 30.203 17.2443 30.203 17.5931V19.5654C30.203 19.9141 30.3415 20.2486 30.5881 20.4952C30.8347 20.7417 31.1691 20.8803 31.5179 20.8803H46.0408C46.3895 20.8803 46.7239 20.7417 46.9705 20.4952C47.2171 20.2486 47.3556 19.9141 47.3556 19.5654V17.5931C47.3556 17.2443 47.2171 16.9099 46.9705 16.6633C46.7239 16.4167 46.3895 16.2782 46.0408 16.2782H31.5179Z" fill="#00C3B8"/>
<path d="M46.0408 30.2031H39.3415C39.0276 30.2031 38.7266 30.0784 38.5047 29.8565C38.2828 29.6345 38.1581 29.3335 38.1581 29.0197C38.1581 28.7058 38.2828 28.4048 38.5047 28.1829C38.7266 27.961 39.0276 27.8363 39.3415 27.8363H46.0408C46.3895 27.8363 46.724 27.6978 46.9706 27.4512C47.2172 27.2046 47.3557 26.8701 47.3557 26.5214V24.5491C47.3557 24.2004 47.2172 23.8659 46.9706 23.6193C46.724 23.3727 46.3895 23.2342 46.0408 23.2342H31.5179C31.2708 23.2343 31.0287 23.3041 30.8194 23.4355C30.6101 23.5669 30.442 23.7546 30.3345 23.9771C30.2704 24.124 30.177 24.2564 30.0601 24.3661C29.9433 24.4759 29.8053 24.5608 29.6546 24.6156C29.504 24.6704 29.3438 24.694 29.1837 24.685C29.0236 24.676 28.867 24.6346 28.7235 24.5633C28.5799 24.4919 28.4523 24.3921 28.3484 24.27C28.2446 24.1478 28.1667 24.0059 28.1193 23.8527C28.072 23.6995 28.0563 23.5383 28.0732 23.3789C28.0901 23.2194 28.1392 23.0651 28.2176 22.9252C28.5213 22.311 28.9892 21.7929 29.5695 21.4285C30.1497 21.0641 30.8196 20.8676 31.5048 20.8608H46.0277C47.0018 20.8626 47.9356 21.2503 48.6244 21.9392C49.3133 22.628 49.701 23.5618 49.7028 24.5359V26.5083C49.701 27.4824 49.3133 28.4162 48.6244 29.105C47.9356 29.7939 47.0018 30.1816 46.0277 30.1834" fill="#00C3B8"/>
<path d="M46.0408 16.2781H31.5179C30.5437 16.2764 29.6099 15.8886 28.9211 15.1998C28.2323 14.5109 27.8445 13.5772 27.8428 12.603V10.6307C27.8445 9.6565 28.2323 8.72274 28.9211 8.0339C29.6099 7.34506 30.5437 6.9573 31.5179 6.95557H46.0408C47.0149 6.9573 47.9487 7.34506 48.6375 8.0339C49.3264 8.72274 49.7141 9.6565 49.7159 10.6307V12.603C49.7141 13.5772 49.3264 14.5109 48.6375 15.1998C47.9487 15.8886 47.0149 16.2764 46.0408 16.2781ZM31.5179 9.31578C31.1691 9.31578 30.8347 9.45432 30.5881 9.7009C30.3415 9.94749 30.203 10.2819 30.203 10.6307V12.603C30.203 12.9517 30.3415 13.2862 30.5881 13.5328C30.8347 13.7793 31.1691 13.9179 31.5179 13.9179H46.0408C46.3895 13.9179 46.7239 13.7793 46.9705 13.5328C47.2171 13.2862 47.3556 12.9517 47.3556 12.603V10.6307C47.3556 10.2819 47.2171 9.94749 46.9705 9.7009C46.7239 9.45432 46.3895 9.31578 46.0408 9.31578H31.5179Z" fill="#00C3B8"/>
<path d="M46.0408 9.32252H31.5179C30.5437 9.32078 29.6099 8.93303 28.9211 8.24419C28.2323 7.55535 27.8445 6.62159 27.8428 5.64743V3.6751C27.8445 2.70094 28.2323 1.76717 28.9211 1.07833C29.6099 0.389496 30.5437 0.00173803 31.5179 0H46.0408C47.0149 0.00173803 47.9487 0.389496 48.6375 1.07833C49.3264 1.76717 49.7141 2.70094 49.7159 3.6751V5.64743C49.7141 6.62159 49.3264 7.55535 48.6375 8.24419C47.9487 8.93303 47.0149 9.32078 46.0408 9.32252ZM31.5179 2.36022C31.1691 2.36022 30.8347 2.49875 30.5881 2.74534C30.3415 2.99193 30.203 3.32637 30.203 3.6751V5.64743C30.203 5.99615 30.3415 6.3306 30.5881 6.57719C30.8347 6.82378 31.1691 6.96231 31.5179 6.96231H46.0408C46.3895 6.96231 46.7239 6.82378 46.9705 6.57719C47.2171 6.3306 47.3556 5.99615 47.3556 5.64743V3.6751C47.3556 3.32637 47.2171 2.99193 46.9705 2.74534C46.7239 2.49875 46.3895 2.36022 46.0408 2.36022H31.5179Z" fill="#00C3B8"/>
<path d="M8.12609 47.2502C7.82494 47.2442 7.53743 47.1236 7.32214 46.9129C7.10685 46.7023 6.97999 46.4174 6.96742 46.1165C6.95485 45.8155 7.0575 45.5211 7.25447 45.2932C7.45143 45.0654 7.72788 44.9212 8.02748 44.89C9.44755 44.7717 10.6046 43.9762 10.6046 43.1149V25.364C10.6046 24.5159 9.38838 23.5758 7.65273 23.5758H2.13022C1.87898 23.5764 1.62825 23.5984 1.38074 23.6415C1.22749 23.6674 1.07065 23.6629 0.919153 23.6282C0.767659 23.5935 0.624486 23.5292 0.497809 23.4392C0.371132 23.3491 0.263432 23.235 0.180858 23.1034C0.0982832 22.9717 0.042451 22.825 0.01655 22.6718C-0.00935092 22.5185 -0.00481353 22.3617 0.0299023 22.2102C0.0646181 22.0587 0.128833 21.9155 0.218881 21.7889C0.308928 21.6622 0.423044 21.5545 0.554714 21.4719C0.686384 21.3893 0.833031 21.3335 0.986278 21.3076C1.36636 21.2427 1.75121 21.2097 2.1368 21.209H7.65273C10.5849 21.209 12.9714 23.0695 12.9714 25.364V43.1149C12.9714 45.2451 10.9334 47.0201 8.23128 47.2437H8.12609" fill="#00C3B8"/>
<path d="M35.7057 40.0186C33.8846 40.0186 31.7611 38.9995 29.5455 37.8227C26.7316 36.3172 23.1486 34.9234 22.0441 36.83C21.9718 36.9744 21.8708 37.1025 21.7472 37.2064C21.6236 37.3103 21.4801 37.3878 21.3254 37.4341C21.1707 37.4805 21.0082 37.4947 20.8479 37.4759C20.6875 37.4571 20.5327 37.4057 20.3929 37.3248C20.2532 37.2439 20.1315 37.1353 20.0353 37.0056C19.9391 36.8759 19.8704 36.7279 19.8336 36.5707C19.7967 36.4135 19.7924 36.2504 19.8209 36.0915C19.8495 35.9326 19.9102 35.7812 19.9994 35.6466C20.6043 34.6078 21.8403 33.4047 24.3123 33.5494C26.015 33.648 28.0925 34.3646 30.6631 35.7386C35.9227 38.5525 36.5209 37.6584 37.0469 36.8694C37.4192 36.4002 37.6063 35.8107 37.5728 35.2127C37.5036 34.9753 37.3869 34.7544 37.2298 34.5634C37.0728 34.3725 36.8786 34.2153 36.659 34.1016L35.5151 33.3718C31.8202 31.0116 24.1413 26.14 19.6247 26.14C14.7991 26.14 12.6164 28.1123 12.5966 28.1123C12.37 28.3294 12.0663 28.4475 11.7526 28.4408C11.4388 28.434 11.1405 28.3028 10.9235 28.0761C10.7064 27.8495 10.5882 27.5458 10.595 27.2321C10.6018 26.9183 10.7329 26.62 10.9596 26.403C11.0714 26.2978 13.7669 23.7732 19.6181 23.7732C24.8185 23.7732 32.6026 28.7369 36.7773 31.4061L37.9147 32.1293C38.4027 32.3989 38.8298 32.7664 39.1692 33.2087C39.5085 33.6511 39.7529 34.1587 39.887 34.6999C39.9854 35.3065 39.9586 35.9268 39.8082 36.5227C39.6578 37.1185 39.3871 37.6773 39.0126 38.1646C38.675 38.7334 38.1933 39.2032 37.6162 39.5264C37.039 39.8496 36.3869 40.0148 35.7254 40.0054" fill="#00C3B8"/>
<path d="M32.4846 49.7682C31.8732 49.7693 31.2625 49.7275 30.6569 49.6433C28.2375 49.3015 23.5171 47.579 16.6271 44.5153C16.3403 44.3871 16.1161 44.1503 16.0039 43.8568C15.8917 43.5634 15.9007 43.2374 16.0288 42.9506C16.157 42.6638 16.3938 42.4396 16.6873 42.3274C16.9807 42.2152 17.3067 42.2241 17.5935 42.3523C24.0891 45.2385 28.8489 47.0004 30.9922 47.3028C34.7988 47.8419 38.7369 46.1523 41.3666 44.8374C42.3265 44.3575 43.477 43.7987 44.6933 43.207C47.895 41.6554 51.8791 39.7225 55.3373 37.7831C55.3936 37.7508 55.453 37.7243 55.5148 37.7042C55.894 37.5528 56.2065 37.2706 56.3957 36.9087C56.4581 36.6903 56.4769 36.4618 56.4509 36.2362C56.425 36.0106 56.3548 35.7923 56.2445 35.5938C55.7186 34.4038 53.0099 35.3703 52.9573 35.3769H52.9047C48.9601 36.6917 37.0144 39.8014 36.5081 39.9329C36.2115 39.9924 35.9034 39.9359 35.647 39.7752C35.3907 39.6146 35.2057 39.3618 35.1299 39.0689C35.0542 38.776 35.0935 38.4652 35.2397 38.2004C35.386 37.9356 35.6282 37.7368 35.9164 37.645C36.0413 37.645 48.2237 34.4433 52.1289 33.1481C53.9172 32.4907 57.2241 32.0042 58.3812 34.6208C58.6367 35.1212 58.7824 35.6704 58.8085 36.2316C58.8345 36.7929 58.7404 37.3532 58.5324 37.8751C58.1013 38.7971 57.3383 39.5225 56.3957 39.9066C52.8916 41.8789 48.9075 43.7987 45.6992 45.3568C44.4895 45.9419 43.3455 46.5008 42.412 46.9741C39.9005 48.2298 36.2846 49.788 32.478 49.788" fill="#00C3B8"/>
</svg>
