<svg width="49" height="53" viewBox="0 0 49 53" fill="none" xmlns="http://www.w3.org/2000/svg">
<path d="M42.6459 52.0747H6.64615C6.5607 52.0719 6.47662 52.0524 6.39873 52.0172C6.32084 51.9819 6.25066 51.9316 6.1922 51.8693C6.13375 51.8069 6.08816 51.7336 6.05804 51.6536C6.02793 51.5735 6.01389 51.4884 6.01671 51.4029V26.9764C6.01389 26.891 6.02793 26.8058 6.05804 26.7258C6.08816 26.6458 6.13375 26.5725 6.1922 26.5101C6.25066 26.4477 6.32084 26.3975 6.39873 26.3622C6.47662 26.327 6.5607 26.3074 6.64615 26.3047H42.6511C42.7366 26.3074 42.8207 26.327 42.8986 26.3622C42.9765 26.3975 43.0466 26.4477 43.1051 26.5101C43.1635 26.5725 43.2091 26.6458 43.2393 26.7258C43.2694 26.8058 43.2834 26.891 43.2806 26.9764V51.3976C43.2841 51.484 43.2704 51.5701 43.2403 51.6511C43.2102 51.732 43.1642 51.8062 43.1052 51.8692C43.0461 51.9323 42.975 51.9829 42.8962 52.0182C42.8173 52.0534 42.7322 52.0726 42.6459 52.0747ZM7.2703 50.7259H42.0164V27.6535H7.2703V50.7259Z" fill="#00C3B8" stroke="#00C3B8" stroke-miterlimit="10"/>
<path d="M31.5751 52.0745H18.8488C18.7633 52.0718 18.6793 52.0522 18.6014 52.017C18.5235 51.9817 18.4533 51.9315 18.3948 51.8691C18.3364 51.8067 18.2908 51.7334 18.2607 51.6534C18.2306 51.5734 18.2165 51.4882 18.2193 51.4028V32.4191C18.2165 32.3336 18.2306 32.2485 18.2607 32.1684C18.2908 32.0884 18.3364 32.0151 18.3948 31.9527C18.4533 31.8903 18.5235 31.8401 18.6014 31.8048C18.6793 31.7696 18.7633 31.75 18.8488 31.7473H31.5751C31.6606 31.75 31.7446 31.7696 31.8225 31.8048C31.9004 31.8401 31.9706 31.8903 32.0291 31.9527C32.0875 32.0151 32.1331 32.0884 32.1632 32.1684C32.1933 32.2485 32.2074 32.3336 32.2045 32.4191V51.4028C32.2074 51.4882 32.1933 51.5734 32.1632 51.6534C32.1331 51.7334 32.0875 51.8067 32.0291 51.8691C31.9706 51.9315 31.9004 51.9817 31.8225 52.017C31.7446 52.0522 31.6606 52.0718 31.5751 52.0745ZM19.4782 50.7257H30.9457V33.112H19.4782V50.7257Z" fill="#00C3B8" stroke="#00C3B8" stroke-miterlimit="10"/>
<path d="M40.784 12.8906H8.40226C8.3168 12.8879 8.23273 12.8683 8.15484 12.8331C8.07694 12.7978 8.00677 12.7476 7.94831 12.6852C7.88985 12.6228 7.84426 12.5495 7.81415 12.4695C7.78404 12.3894 7.76999 12.3043 7.77282 12.2188V1.67175C7.76999 1.5863 7.78404 1.50114 7.81415 1.42112C7.84426 1.3411 7.88985 1.26781 7.94831 1.20542C8.00677 1.14303 8.07694 1.09278 8.15484 1.05753C8.23273 1.02228 8.3168 1.00273 8.40226 1H40.784C40.8699 1.00205 40.9546 1.02109 41.0331 1.05604C41.1116 1.09098 41.1824 1.14113 41.2414 1.20359C41.3004 1.26604 41.3464 1.33957 41.3769 1.41993C41.4073 1.50028 41.4216 1.58587 41.4187 1.67175V12.2135C41.4223 12.2999 41.4086 12.386 41.3785 12.467C41.3483 12.548 41.3024 12.6221 41.2433 12.6851C41.1842 12.7482 41.1132 12.7988 41.0343 12.8341C40.9555 12.8693 40.8704 12.8886 40.784 12.8906ZM9.04756 11.5418H40.1757V2.34351H9.03169V11.5418H9.04756Z" fill="#00C3B8" stroke="#00C3B8" stroke-miterlimit="10"/>
<path d="M42.2175 27.6532H42.0165C39.2607 27.6162 25.6616 27.6532 15.7334 27.6532H6.64091C4.20778 27.6532 2.53104 26.9445 1.653 25.5375C0.372959 23.5011 1.36208 20.8352 1.40439 20.7241C1.42434 20.6699 1.45099 20.6183 1.48373 20.5707L8.00557 11.3619C8.05216 11.2924 8.11279 11.2335 8.18356 11.189C8.25432 11.1445 8.33364 11.1153 8.41639 11.1033C8.49914 11.0914 8.58348 11.0969 8.66396 11.1196C8.74444 11.1422 8.81927 11.1815 8.88361 11.2349C9.01676 11.349 9.10289 11.5084 9.12536 11.6823C9.14783 11.8562 9.10504 12.0322 9.00527 12.1764L2.54162 21.3112C2.41467 21.6974 1.88573 23.5116 2.69501 24.797C3.32445 25.7967 4.65209 26.3044 6.64091 26.3044H15.7281C25.6616 26.3044 39.266 26.2727 42.0323 26.3044C44.2697 26.3415 45.7349 25.8072 46.3485 24.7176C47.1736 23.3159 46.3961 21.2531 46.2427 20.8775L39.8954 12.4145C39.791 12.273 39.7429 12.0977 39.7605 11.9227C39.7781 11.7477 39.8601 11.5855 39.9906 11.4677C40.0534 11.412 40.1271 11.3702 40.2071 11.345C40.287 11.3197 40.3714 11.3116 40.4547 11.321C40.538 11.3305 40.6184 11.3574 40.6906 11.4C40.7628 11.4426 40.8253 11.4999 40.8739 11.5682L47.29 20.1158C47.3193 20.1553 47.3441 20.1979 47.3641 20.2428C47.4222 20.3644 48.7234 23.263 47.4275 25.4528C46.5548 26.9127 44.804 27.6532 42.2175 27.6532Z" fill="#00C3B8" stroke="#00C3B8" stroke-miterlimit="10"/>
<path d="M6.75201 27.1033C6.64803 27.1033 6.54587 27.0759 6.45581 27.0239C6.30723 26.9316 6.19869 26.7869 6.15167 26.6185C6.10466 26.45 6.12259 26.27 6.20192 26.1141L13.0305 12.4833C13.0657 12.407 13.1164 12.3387 13.1793 12.2829C13.2422 12.2271 13.316 12.1849 13.396 12.1591C13.4761 12.1332 13.5606 12.1243 13.6442 12.1327C13.7279 12.1412 13.8089 12.1669 13.8821 12.2083C14.0307 12.3006 14.1393 12.4453 14.1863 12.6137C14.2333 12.7822 14.2154 12.9622 14.136 13.1181L7.3074 26.7647C7.25489 26.8668 7.17527 26.9523 7.07729 27.0121C6.97931 27.0718 6.86676 27.1033 6.75201 27.1033Z" fill="#00C3B8" stroke="#00C3B8" stroke-miterlimit="10"/>
<path d="M15.6542 27.3784C15.5998 27.3861 15.5446 27.3861 15.4902 27.3784C15.3248 27.3236 15.1866 27.2075 15.104 27.0541C15.0214 26.9007 15.0006 26.7215 15.0459 26.5532L18.4629 12.8748C18.4802 12.7922 18.5141 12.714 18.5625 12.6449C18.611 12.5758 18.6729 12.5172 18.7446 12.4728C18.8163 12.4283 18.8962 12.3988 18.9796 12.386C19.063 12.3733 19.1482 12.3776 19.2299 12.3987C19.3953 12.4535 19.5335 12.5696 19.6161 12.723C19.6987 12.8764 19.7195 13.0556 19.6742 13.2239L16.2625 26.8759C16.2327 27.016 16.1564 27.1419 16.0459 27.2331C15.9355 27.3243 15.7974 27.3755 15.6542 27.3784Z" fill="#00C3B8" stroke="#00C3B8" stroke-miterlimit="10"/>
<path d="M42.4765 27.1033C42.5805 27.1033 42.6826 27.0759 42.7727 27.0239C42.9213 26.9316 43.0298 26.7869 43.0768 26.6185C43.1238 26.45 43.1059 26.27 43.0266 26.1141L36.2244 12.4833C36.1892 12.407 36.1385 12.3387 36.0756 12.2829C36.0127 12.2271 35.9389 12.1849 35.8589 12.1591C35.7789 12.1332 35.6944 12.1243 35.6107 12.1327C35.527 12.1412 35.446 12.1669 35.3728 12.2083C35.2242 12.3006 35.1157 12.4453 35.0687 12.6137C35.0217 12.7822 35.0396 12.9622 35.1189 13.1181L41.9475 26.7647C41.9979 26.8629 42.0734 26.9459 42.1663 27.0054C42.2592 27.0648 42.3663 27.0986 42.4765 27.1033Z" fill="#00C3B8" stroke="#00C3B8" stroke-miterlimit="10"/>
<path d="M33.6011 27.3783C33.6555 27.386 33.7107 27.386 33.7651 27.3783C33.9305 27.3235 34.0687 27.2075 34.1513 27.054C34.2339 26.9006 34.2547 26.7214 34.2094 26.5531L30.7977 12.9012C30.7804 12.8186 30.7465 12.7404 30.6981 12.6713C30.6497 12.6022 30.5877 12.5436 30.5161 12.4991C30.4444 12.4546 30.3644 12.4251 30.281 12.4124C30.1976 12.3997 30.1125 12.404 30.0308 12.4251C29.8654 12.4799 29.7272 12.5959 29.6446 12.7494C29.5619 12.9028 29.5411 13.082 29.5865 13.2503L32.9981 26.9022C33.0328 27.0366 33.1105 27.1559 33.2194 27.2418C33.3283 27.3278 33.4624 27.3757 33.6011 27.3783Z" fill="#00C3B8" stroke="#00C3B8" stroke-miterlimit="10"/>
<path d="M24.646 27.209C24.5605 27.2062 24.4765 27.1867 24.3986 27.1514C24.3207 27.1162 24.2505 27.0659 24.1921 27.0035C24.1336 26.9411 24.088 26.8678 24.0579 26.7878C24.0278 26.7078 24.0137 26.6226 24.0166 26.5372V12.88C24.0085 12.7928 24.0188 12.7049 24.0466 12.622C24.0745 12.539 24.1194 12.4628 24.1783 12.3981C24.2373 12.3334 24.3091 12.2818 24.3892 12.2465C24.4693 12.2111 24.5558 12.1929 24.6434 12.1929C24.7309 12.1929 24.8174 12.2111 24.8975 12.2465C24.9776 12.2818 25.0494 12.3334 25.1084 12.3981C25.1674 12.4628 25.2122 12.539 25.2401 12.622C25.2679 12.7049 25.2782 12.7928 25.2702 12.88V26.5319C25.2737 26.6174 25.2604 26.7027 25.2309 26.783C25.2014 26.8633 25.1564 26.937 25.0985 26.9998C25.0405 27.0627 24.9707 27.1136 24.8931 27.1494C24.8154 27.1853 24.7315 27.2055 24.646 27.209Z" fill="#00C3B8" stroke="#00C3B8" stroke-miterlimit="10"/>
</svg>
