<svg width="128" height="128" viewBox="0 0 128 128" fill="none" xmlns="http://www.w3.org/2000/svg">
<g opacity="0.07" filter="url(#filter0_d)">
<circle cx="63.8296" cy="59.8295" r="45.7151" transform="rotate(-18.6404 63.8296 59.8295)" stroke="#3550AB" stroke-width="3"/>
<circle cx="63.8294" cy="59.8296" r="35.8786" transform="rotate(-18.6404 63.8294 59.8296)" stroke="#3550AB" stroke-width="3"/>
<path d="M70.7405 64.9406C70.3576 63.8055 69.6341 62.9846 68.57 62.4778C67.5181 61.9669 65.9423 61.7152 63.8423 61.7227C60.9439 61.8072 58.6737 61.4119 57.0317 60.5366C55.398 59.6448 54.2461 58.2057 53.576 56.2194C52.8935 54.196 52.9198 52.3388 53.6549 50.648C54.4023 48.953 55.7646 47.6346 57.7418 46.6928L56.3746 42.6398L59.1321 41.7097L60.5055 45.7812C62.674 45.3657 64.5775 45.6924 66.216 46.7612C67.8668 47.8259 69.1188 49.6228 69.972 52.1521L66.5668 53.3008C65.98 51.5611 65.1005 50.3187 63.9285 49.5735C62.7564 48.8283 61.4671 48.6929 60.0606 49.1674C58.5924 49.6627 57.5987 50.4239 57.0794 51.451C56.556 52.4658 56.5232 53.6518 56.981 55.0089C57.4055 56.2674 58.1519 57.1356 59.22 57.6135C60.2964 58.0749 61.8763 58.2978 63.9597 58.2821C66.0513 58.2499 67.7463 58.427 69.0448 58.8135C70.3513 59.1836 71.4158 59.7727 72.2381 60.5809C73.0727 61.3849 73.7106 62.4409 74.1518 63.7487C74.8551 65.8338 74.7919 67.7239 73.9621 69.4192C73.1447 71.1104 71.6466 72.454 69.4678 73.45L70.6602 76.9848L67.9212 77.9087L66.7288 74.3739C64.3632 74.9383 62.2873 74.7316 60.5008 73.7539C58.7226 72.7597 57.4215 71.0412 56.5974 68.5983L60.0212 67.4434C60.5996 69.1584 61.4953 70.3266 62.7081 70.9481C63.9209 71.5696 65.3539 71.6016 67.0072 71.0439C68.6234 70.4987 69.7631 69.6814 70.4263 68.5919C71.0894 67.5025 71.1942 66.2854 70.7405 64.9406Z" fill="#3550AB"/>
</g>
<defs>
<filter id="filter0_d" x="0" y="0" width="127.659" height="127.659" filterUnits="userSpaceOnUse" color-interpolation-filters="sRGB">
<feFlood flood-opacity="0" result="BackgroundImageFix"/>
<feColorMatrix in="SourceAlpha" type="matrix" values="0 0 0 0 0 0 0 0 0 0 0 0 0 0 0 0 0 0 127 0"/>
<feOffset dy="4"/>
<feGaussianBlur stdDeviation="2"/>
<feColorMatrix type="matrix" values="0 0 0 0 0 0 0 0 0 0 0 0 0 0 0 0 0 0 0.25 0"/>
<feBlend mode="normal" in2="BackgroundImageFix" result="effect1_dropShadow"/>
<feBlend mode="normal" in="SourceGraphic" in2="effect1_dropShadow" result="shape"/>
</filter>
</defs>
</svg>
